/* XPM */
static char * 60x60_xpm[] = {
"60 60 124 2",
"  	c #FFFFFF",
". 	c #FEFEFE",
"+ 	c #FAFAFA",
"@ 	c #F5F5F5",
"# 	c #F3F3F3",
"$ 	c #FBFBFB",
"% 	c #F9F9F9",
"& 	c #E6E6E6",
"* 	c #D6D6D6",
"= 	c #DADADA",
"- 	c #DEDEDE",
"; 	c #E0E0E0",
"> 	c #EAEAEA",
", 	c #F8F8F8",
"' 	c #ECECEC",
") 	c #D7D7D7",
"! 	c #C3C3C3",
"~ 	c #C5C5C5",
"{ 	c #D9D9D9",
"] 	c #E5E5E5",
"^ 	c #E7E7E7",
"/ 	c #EBEBEB",
"( 	c #FCFCFC",
"_ 	c #F7F7F7",
": 	c #E9E9E9",
"< 	c #D4D4D4",
"[ 	c #C7C7C7",
"} 	c #E4E4E4",
"| 	c #F1F1F1",
"1 	c #EDEDED",
"2 	c #F2F2F2",
"3 	c #FDFDFD",
"4 	c #F6F6F6",
"5 	c #D1D1D1",
"6 	c #C1C1C1",
"7 	c #C4C4C4",
"8 	c #E8E8E8",
"9 	c #CFCFCF",
"0 	c #BFBFBF",
"a 	c #D3D3D3",
"b 	c #F0F0F0",
"c 	c #D0D0D0",
"d 	c #C2C2C2",
"e 	c #D2D2D2",
"f 	c #D5D5D5",
"g 	c #C6C6C6",
"h 	c #EFEFEF",
"i 	c #E3E3E3",
"j 	c #E1E1E1",
"k 	c #D8D8D8",
"l 	c #B8B8B8",
"m 	c #ACACAC",
"n 	c #DBDBDB",
"o 	c #CECECE",
"p 	c #B4B4B4",
"q 	c #949494",
"r 	c #7A7A7A",
"s 	c #7E7E7E",
"t 	c #B9B9B9",
"u 	c #BEBEBE",
"v 	c #DCDCDC",
"w 	c #B5B5B5",
"x 	c #737373",
"y 	c #555555",
"z 	c #494949",
"A 	c #696969",
"B 	c #CCCCCC",
"C 	c #DDDDDD",
"D 	c #B6B6B6",
"E 	c #BBBBBB",
"F 	c #717171",
"G 	c #535353",
"H 	c #383838",
"I 	c #262626",
"J 	c #656565",
"K 	c #CBCBCB",
"L 	c #BABABA",
"M 	c #BCBCBC",
"N 	c #727272",
"O 	c #1C1C1C",
"P 	c #353535",
"Q 	c #636363",
"R 	c #C0C0C0",
"S 	c #222222",
"T 	c #161616",
"U 	c #323232",
"V 	c #3B3B3B",
"W 	c #939393",
"X 	c #515151",
"Y 	c #0D0D0D",
"Z 	c #BDBDBD",
"` 	c #A2A2A2",
" .	c #7C7C7C",
"..	c #ADADAD",
"+.	c #8E8E8E",
"@.	c #5D5D5D",
"#.	c #B7B7B7",
"$.	c #8B8B8B",
"%.	c #585858",
"&.	c #2A2A2A",
"*.	c #ABABAB",
"=.	c #8A8A8A",
"-.	c #565656",
";.	c #AAAAAA",
">.	c #898989",
",.	c #DFDFDF",
"'.	c #474747",
").	c #3D3D3D",
"!.	c #5A5A5A",
"~.	c #7F7F7F",
"{.	c #A1A1A1",
"].	c #EEEEEE",
"^.	c #CACACA",
"/.	c #5C5C5C",
"(.	c #7D7D7D",
"_.	c #404040",
":.	c #B0B0B0",
"<.	c #8F8F8F",
"[.	c #666666",
"}.	c #606060",
"|.	c #A0A0A0",
"1.	c #A6A6A6",
"2.	c #A3A3A3",
"3.	c #C9C9C9",
"                                                                                                                        ",
"                                                                                                                        ",
"                                                                                                                        ",
"                                                                                                                        ",
"                                                                                                                        ",
"                                                                                                                        ",
"                                                                                                                        ",
"                                                                                                                        ",
"                                                                                                                        ",
"                                                                                                                        ",
"                                                . + @ # @ $                                                             ",
"                                            . % & * = - ; > , .                                                         ",
"                                          $ ' ) ! ~ { ] ^ & / @ (                                                       ",
"                                    . _ : < ~ [ < } | _ _ # 1 > ' 2 % .                                                 ",
"                                3 4 ^ 5 6 7 < ] | % ( . . ( % # 1 8 : | % 3                                             ",
"                            . _ ^ 9 0 ! a } | % 3 .         . ( % # 1 ^ 8 b % 3                                         ",
"                        . 4 & c d 7 e } | % 3 .                 . ( % # ' 8 > b , 3                                     ",
"                    . , / f 7 7 a } | % ( .                         . ( % # ' 8 : b , 3                                 ",
"                  $ 1 f ! [ * ] | % 3 .                                 . ( % # ' ^ 8 b % .                             ",
"                  ^ [ g e ] # % 3                                           . ( , # 1 8 / h ,                           ",
"                  8 < i b % 3                                                   . ( , | : i |                           ",
"                  h ] | + .                                                       3 % h j f >                           ",
"                  : k & | % 3                                                 . $ # & c l m n                           ",
"                  j ! o = 8 # % (                                         . $ # ] 5 p q r s c                           ",
"                  - t u ~ c v 8 | , (                                 . + # ] c w q x y z A B                           ",
"                  C D t E 0 g c n ^ | % 3                         . $ # & 5 p q F G H I H J K                           ",
"                  C w t L E M 0 ~ 9 n ^ 2 % 3                 . $ # & 5 p q N G H I O O P Q K                           ",
"                  C w t t t t L M R g c n ^ | , (         . + # ] c w q x G H I S O T T U Q K                           ",
"                  C w l t t t t t L M 0 ~ c n ^ | , ( ( + # ] c p q x G V I O T T T T T U Q K                           ",
"                  C w l t t t t t t L E M u ~ 9 n ^ h h ] 5 p W F X H I S O T T T Y Y T U Q K                           ",
"                  C w l t t t t t t t t L E M R g o a K p q N G H I O O T T T Y Y Y Y T U Q K                           ",
"                  C w l t t t t t t t t t t t L M Z t `  .y V I S O T T Y Y Y Y Y Y Y T U Q K                           ",
"                  C w l t t t t t t t t t t t t t l ..+.@.U S T T T Y Y Y Y Y Y Y Y Y T U Q K                           ",
"                  C w l t t t t t t t t t t t t t #.m $.%.&.O T T Y Y Y Y Y Y Y Y Y Y T U Q K                           ",
"                  C w l t t t t t t t t t t t t t #.*.=.-.&.T T Y Y Y Y Y Y Y Y Y Y Y T U Q K                           ",
"                  C w l t t t t t t t t t t t t t D ;.>.-.I T Y Y Y Y Y Y Y Y Y Y Y Y T U Q K                           ",
"                  C w l t t t t t t t t t t t t t D ;.>.-.I T Y Y Y Y Y Y Y Y Y Y Y Y T U Q K                           ",
"                  C D t t t t t t t t t t t t t t D ;.>.-.I T Y Y Y Y Y Y Y Y Y Y Y T T P J K                           ",
"                  ,.t L t t t t t t t t t t t t t D ;.>.-.I T Y Y Y Y Y Y Y Y Y T T O &.'.x c                           ",
"                  & [ d Z E L t t t t t t t t t t D ;.>.-.I T Y Y Y Y Y Y Y T O O I ).!.~.` C                           ",
"                  # j * K d M L t t t t t t t t t D ;.>.-.I T Y Y Y Y Y T T O I ).!.s {.R ) b                           ",
"                  $ @ ].} * ^.d Z E L t t t t t t D ;.>.-.I T Y Y Y T T O &.)./.s {.R { > @ $                           ",
"                    3 $ 4 ].j * K d Z E L t t t t D ;.>.-.I T T T T O &.)./.~.{.R { / @ $ .                             ",
"                        . $ @ ].i * K d Z E L t t D ;.>.-.I O O O I ).!.(.{.R = / 4 $ .                                 ",
"                            3 $ 4 ].i * K d Z E t #.;.>.-.I O I )./.s {.R { / 4 $ .                                     ",
"                                3 $ @ ].i * K d Z t m =.%.P _./.s {.R { > @ $ .                                         ",
"                                    3 $ 4 ].i * K R :.<.[.}.s |.R { / 4 $ .                                             ",
"                                        3 $ 4 ].i f 6 1.q 2.R = / 4 $ .                                                 ",
"                                            3 $ @ > = 3.[ ) > @ $ .                                                     ",
"                                                . ( % _ _ % ( .                                                         ",
"                                                                                                                        ",
"                                                                                                                        ",
"                                                                                                                        ",
"                                                                                                                        ",
"                                                                                                                        ",
"                                                                                                                        ",
"                                                                                                                        ",
"                                                                                                                        ",
"                                                                                                                        ",
"                                                                                                                        "};
