/* XPM */
static char * 64x65_xpm[] = {
"64 65 139 2",
"  	c #FFFFFF",
". 	c #FEFEFE",
"+ 	c #F7F7F7",
"@ 	c #E7E7E7",
"# 	c #D5D5D5",
"$ 	c #D7D7D7",
"% 	c #EEEEEE",
"& 	c #FBFBFB",
"* 	c #DCDCDC",
"= 	c #ECECEC",
"- 	c #DADADA",
"; 	c #EDEDED",
"> 	c #EAEAEA",
", 	c #F8F8F8",
"' 	c #F9F9F9",
") 	c #DEDEDE",
"! 	c #BCBCBC",
"~ 	c #959595",
"{ 	c #717171",
"] 	c #7A7A7A",
"^ 	c #C1C1C1",
"/ 	c #CECECE",
"( 	c #858585",
"_ 	c #A9A9A9",
": 	c #7E7E7E",
"< 	c #AFAFAF",
"[ 	c #9F9F9F",
"} 	c #A2A2A2",
"| 	c #BEBEBE",
"1 	c #FDFDFD",
"2 	c #BBBBBB",
"3 	c #B4B4B4",
"4 	c #B6B6B6",
"5 	c #C0C0C0",
"6 	c #D4D4D4",
"7 	c #EBEBEB",
"8 	c #878787",
"9 	c #4B4B4B",
"0 	c #161616",
"a 	c #454545",
"b 	c #F3F3F3",
"c 	c #C5C5C5",
"d 	c #707070",
"e 	c #262626",
"f 	c #515151",
"g 	c #2E2E2E",
"h 	c #919191",
"i 	c #808080",
"j 	c #353535",
"k 	c #2A2A2A",
"l 	c #3B3B3B",
"m 	c #6E6E6E",
"n 	c #9B9B9B",
"o 	c #CFCFCF",
"p 	c #DBDBDB",
"q 	c #CBCBCB",
"r 	c #9E9E9E",
"s 	c #0D0D0D",
"t 	c #656565",
"u 	c #BDBDBD",
"v 	c #FCFCFC",
"w 	c #E5E5E5",
"x 	c #D9D9D9",
"y 	c #CDCDCD",
"z 	c #AAAAAA",
"A 	c #777777",
"B 	c #494949",
"C 	c #1C1C1C",
"D 	c #222222",
"E 	c #5F5F5F",
"F 	c #757575",
"G 	c #888888",
"H 	c #A3A3A3",
"I 	c #636363",
"J 	c #7D7D7D",
"K 	c #7F7F7F",
"L 	c #5D5D5D",
"M 	c #A7A7A7",
"N 	c #F2F2F2",
"O 	c #E6E6E6",
"P 	c #CCCCCC",
"Q 	c #A4A4A4",
"R 	c #929292",
"S 	c #323232",
"T 	c #606060",
"U 	c #838383",
"V 	c #A0A0A0",
"W 	c #8A8A8A",
"X 	c #C6C6C6",
"Y 	c #E0E0E0",
"Z 	c #F1F1F1",
"` 	c #B2B2B2",
" .	c #F6F6F6",
"..	c #A8A8A8",
"+.	c #949494",
"@.	c #555555",
"#.	c #424242",
"$.	c #848484",
"%.	c #A5A5A5",
"&.	c #DDDDDD",
"*.	c #E1E1E1",
"=.	c #D6D6D6",
"-.	c #F5F5F5",
";.	c #FAFAFA",
">.	c #383838",
",.	c #787878",
"'.	c #B1B1B1",
").	c #6A6A6A",
"!.	c #969696",
"~.	c #F0F0F0",
"{.	c #ADADAD",
"].	c #3D3D3D",
"^.	c #6C6C6C",
"/.	c #939393",
"(.	c #ACACAC",
"_.	c #8E8E8E",
":.	c #ABABAB",
"<.	c #D2D2D2",
"[.	c #898989",
"}.	c #B9B9B9",
"|.	c #C9C9C9",
"1.	c #F4F4F4",
"2.	c #9D9D9D",
"3.	c #4D4D4D",
"4.	c #EFEFEF",
"5.	c #727272",
"6.	c #D1D1D1",
"7.	c #666666",
"8.	c #B0B0B0",
"9.	c #989898",
"0.	c #8C8C8C",
"a.	c #CACACA",
"b.	c #C7C7C7",
"c.	c #E2E2E2",
"d.	c #D3D3D3",
"e.	c #D0D0D0",
"f.	c #5A5A5A",
"g.	c #D8D8D8",
"h.	c #E8E8E8",
"                                                                                                                                ",
"                                                                                                                                ",
"                                                                                                                                ",
"                                                                                                                                ",
"                                                                                                                                ",
"                                                                                                                                ",
"                                                                                                                                ",
"                                                                                                                                ",
"                                                                                                                                ",
"                                                                                                                                ",
"                                                                                                                                ",
"                                                                                                                                ",
"                                                                                                                                ",
"                                                                                                                                ",
"                                                                                                                                ",
"                                                                                                                                ",
"                                                                                                                                ",
"                                                                                                                                ",
"                                                                                                                                ",
"                                                                                                                                ",
"                                                                                                                                ",
"                                                                                                                                ",
"                                                                                                                                ",
"                                                                                                                                ",
"                                                . + @ # $ %                                       & * = - ; > = , &             ",
"                      & , ' .                 , ) ! ~ { ] ^ .                                 . , / ( _ : < [ } | * 1           ",
"                    * 2 3 4 5 6 7 1       . = 2 8 9 0 a [ #                           1 b @ $ c 3 d e a 0 f g g f h 7           ",
"                + / i j k k l m n ! o - p q r a 0 s t u = 1             v + b ; w x y | z ~ A B g C s s D a E F G H w           ",
"              v o I 0 0 s s s 0 s k I J K L 0 s s C M '         v N O x P | 3 Q R ] L j C S T U [ V W F [ 4 X 6 Y 7 +           ",
"              Z U 0 0 0 s s s 0 s s s s s s s s s C ` ,  .> p y 2 ..+.] t @.a j j #.T $.%.2 / &.= ; *.=.7 -.;..                 ",
"              =.>.0 0 0 0 0 0 0 0 s s s s s s s s s ,.2 '.n : L g s s C 9 ).U !.z 2 y ) ~.&                                     ",
"              {.0 0 0 0 0 0 0 0 0 s s s s s s s s s 0 #.e s s 0 ].^./.(.5 / * O ~., .                                           ",
"              _.0 0 0 0 0 0 0 0 0 s s s s s s s s 0 j 9 T A ~ :.5 <.w b ;.v .                                                   ",
"              [.0 0 0 0 0 0 0 0 0 s s s s s s s s ( _ }.|.$ @ 1.1                                                               ",
"              2.0 0 0 0 0 0 0 0 0 s s s s s s s 3.&.4.-.&                                                                       ",
"              | 0 0 0 0 0 0 0 0 0 s s s s s s s 5.v                                                                             ",
"              &.j 0 0 0 0 0 0 0 0 s s s s s s s L 6.= + v                                                                       ",
"              % 7.0 0 0 0 0 0 0 0 s s s s s s s C m [ 8.$                                                                       ",
"              , 9.0 0 0 0 0 0 0 0 s s s B K 0.: d 7.t F a.                                                                      ",
"              . b.e 0 0 0 0 0 0 0 s s m 5 p c.- d.o / # N                                                                       ",
"                % J C 0 0 0 0 0 0 g ( e.&     . . . . .                                                                         ",
"                . 6 J D 0 0 0 C f.Q p v                                                                                         ",
"                  & g.} 5.T ).9.b.; 1                                                                                           ",
"                    . ; # / 6.h.v                                                                                               ",
"                                                                                                                                ",
"                                                                                                                                ",
"                                                                                                                                ",
"                                                                                                                                ",
"                                                                                                                                ",
"                                                                                                                                ",
"                                                                                                                                ",
"                                                                                                                                ",
"                                                                                                                                ",
"                                                                                                                                ",
"                                                                                                                                ",
"                                                                                                                                ",
"                                                                                                                                ",
"                                                                                                                                ",
"                                                                                                                                ",
"                                                                                                                                ",
"                                                                                                                                ",
"                                                                                                                                ",
"                                                                                                                                ",
"                                                                                                                                ",
"                                                                                                                                "};
