/* XPM */
static char * 64x64_xpm[] = {
"64 64 137 2",
"  	c #FFFFFF",
". 	c #FCFCFC",
"+ 	c #F6F6F6",
"@ 	c #F0F0F0",
"# 	c #F8F8F8",
"$ 	c #FEFEFE",
"% 	c #F4F4F4",
"& 	c #F7F7F7",
"* 	c #F2F2F2",
"= 	c #FDFDFD",
"- 	c #F3F3F3",
"; 	c #E0E0E0",
"> 	c #C0C0C0",
", 	c #989898",
"' 	c #949494",
") 	c #C8C8C8",
"! 	c #EBEBEB",
"~ 	c #B2B2B2",
"{ 	c #A6A6A6",
"] 	c #C2C2C2",
"^ 	c #C3C3C3",
"/ 	c #C4C4C4",
"( 	c #DADADA",
"_ 	c #ECECEC",
": 	c #E5E5E5",
"< 	c #DDDDDD",
"[ 	c #DEDEDE",
"} 	c #E6E6E6",
"| 	c #EEEEEE",
"1 	c #E3E3E3",
"2 	c #B4B4B4",
"3 	c #737373",
"4 	c #323232",
"5 	c #2A2A2A",
"6 	c #686868",
"7 	c #ACACAC",
"8 	c #F1F1F1",
"9 	c #FBFBFB",
"0 	c #DFDFDF",
"a 	c #A1A1A1",
"b 	c #4F4F4F",
"c 	c #2E2E2E",
"d 	c #5C5C5C",
"e 	c #474747",
"f 	c #383838",
"g 	c #5D5D5D",
"h 	c #E9E9E9",
"i 	c #EFEFEF",
"j 	c #5F5F5F",
"k 	c #353535",
"l 	c #7F7F7F",
"m 	c #B6B6B6",
"n 	c #EDEDED",
"o 	c #CBCBCB",
"p 	c #797979",
"q 	c #161616",
"r 	c #404040",
"s 	c #858585",
"t 	c #D1D1D1",
"u 	c #F9F9F9",
"v 	c #E8E8E8",
"w 	c #D6D6D6",
"x 	c #BEBEBE",
"y 	c #9D9D9D",
"z 	c #6A6A6A",
"A 	c #222222",
"B 	c #0D0D0D",
"C 	c #3B3B3B",
"D 	c #4B4B4B",
"E 	c #585858",
"F 	c #CECECE",
"G 	c #979797",
"H 	c #3D3D3D",
"I 	c #727272",
"J 	c #959595",
"K 	c #898989",
"L 	c #E7E7E7",
"M 	c #CACACA",
"N 	c #B9B9B9",
"O 	c #9F9F9F",
"P 	c #7E7E7E",
"Q 	c #262626",
"R 	c #555555",
"S 	c #6C6C6C",
"T 	c #696969",
"U 	c #C6C6C6",
"V 	c #B0B0B0",
"W 	c #4D4D4D",
"X 	c #1C1C1C",
"Y 	c #A9A9A9",
"Z 	c #D4D4D4",
"` 	c #BDBDBD",
" .	c #848484",
"..	c #6D6D6D",
"+.	c #5A5A5A",
"@.	c #424242",
"#.	c #818181",
"$.	c #A0A0A0",
"%.	c #BFBFBF",
"&.	c #BCBCBC",
"*.	c #F5F5F5",
"=.	c #7C7C7C",
"-.	c #D2D2D2",
";.	c #D9D9D9",
">.	c #C5C5C5",
",.	c #A4A4A4",
"'.	c #454545",
").	c #656565",
"!.	c #777777",
"~.	c #888888",
"{.	c #C9C9C9",
"].	c #8E8E8E",
"^.	c #A7A7A7",
"/.	c #AFAFAF",
"(.	c #707070",
"_.	c #878787",
":.	c #AAAAAA",
"<.	c #CDCDCD",
"[.	c #FAFAFA",
"}.	c #A8A8A8",
"|.	c #535353",
"1.	c #767676",
"2.	c #8B8B8B",
"3.	c #636363",
"4.	c #EAEAEA",
"5.	c #D5D5D5",
"6.	c #494949",
"7.	c #B8B8B8",
"8.	c #B5B5B5",
"9.	c #ADADAD",
"0.	c #B3B3B3",
"a.	c #6E6E6E",
"b.	c #838383",
"c.	c #515151",
"d.	c #626262",
"e.	c #969696",
"f.	c #D0D0D0",
"                                                                                                                                ",
"                                                                                                                                ",
"                                                                                                                                ",
"                                                                                                                                ",
"                                                                                                                                ",
"                                                                                                                                ",
"                                                                                                                                ",
"                                                                                                                                ",
"                                                                                                                                ",
"                                                                                                                                ",
"                                                                                                                                ",
"                                                                                                                                ",
"                                                                                                                                ",
"                                                                                                                                ",
"                                                                                                                                ",
"                                                                                                                                ",
"                                                                                                                                ",
"                                                                                                                                ",
"                                                                                                                                ",
"                                                                                                                                ",
"                                                                                                                                ",
"                                                                                                                                ",
"                                                                                                                                ",
"                                                                                                                                ",
"                                                                                                                                ",
"                                                    . + @ @ # $                                     $ % & * & & # . $           ",
"                        $ . = $                 = - ; > , ' ) &                                   = ! ~ > { ] ^ / ( _ .         ",
"                      % : < [ } | + =         # 1 2 3 4 5 6 7 8                           9 + 8 ! 0 a b b c d e f g a h =       ",
"                  . i ~ j k k e l m [ n 8 * n o p c q r s t +             $ . 9 u + * | v w x y z r A B B q 5 C D E 3 F u       ",
"                $ v G H q q q q q q 4 I J y l H B B q K L =       $ 9 + * ! ; w M N O P b Q A C R 6 S g b T s y ~ U ( i .       ",
"                # V W q q B B B q B B B B B B B B B X Y 8 9 # * | : Z ` O  ...+.@.c 5 H R z #.$.%.( ; t &.w ! *.9               ",
"                v =.Q q q q q q q q B B B B B B B B q s -.;.>.,.P D A B q c '.R ).!.~.a > ; + $                                 ",
"                {.d q q q q q q q q B B B B B B B B B X D C X B B Q @.g I ].^.%.-.1 8 .                                         ",
"                /.e q q q q q q q q B B B B B B B B B A c H D j (._.:.<.L *.[.=                                                 ",
"                }.@.q q q q q q q q B B B B B B B B |.1.2.$.m t v u                                                             ",
"                V e q q q q q q q q B B B B B B B 4 m 0 n & =                                                                   ",
"                >.R q q q q q q q q B B B B B B B 3.4.                                                                          ",
"                [ z q q q q q q q q B B B B B B B ).( + 9 $                                                                     ",
"                i s Q q q q q q q q B B B B B B B A =.N 5.4..                                                                   ",
"                & ^.@.q q q q q q q B B B 5 b d R 6.@.@.W :.*                                                                   ",
"                $ ) +.q q q q q q q B B '.~.7.o ] 8.9.:.0.0 9                                                                   ",
"                  ! s 5 q q q q q q X |.,._ =   $ $ = = $                                                                       ",
"                  $ o I 5 q q q q f a.N @ $                                                                                     ",
"                    9 o b.c.@.'.d.e.w + $                                                                                       ",
"                      $ v > :.9.f.% $                                                                                           ",
"                                                                                                                                ",
"                                                                                                                                ",
"                                                                                                                                ",
"                                                                                                                                ",
"                                                                                                                                ",
"                                                                                                                                ",
"                                                                                                                                ",
"                                                                                                                                ",
"                                                                                                                                ",
"                                                                                                                                ",
"                                                                                                                                ",
"                                                                                                                                ",
"                                                                                                                                ",
"                                                                                                                                ",
"                                                                                                                                ",
"                                                                                                                                ",
"                                                                                                                                ",
"                                                                                                                                ",
"                                                                                                                                "};
