/* XPM */
static char * 64x70_xpm[] = {
"64 70 132 2",
"  	c #FFFFFF",
". 	c #FEFEFE",
"+ 	c #F6F6F6",
"@ 	c #DEDEDE",
"# 	c #B5B5B5",
"$ 	c #9F9F9F",
"% 	c #C2C2C2",
"& 	c #EEEEEE",
"* 	c #FBFBFB",
"= 	c #D7D7D7",
"- 	c #C5C5C5",
"; 	c #C3C3C3",
"> 	c #C4C4C4",
", 	c #D6D6D6",
"' 	c #D5D5D5",
") 	c #E4E4E4",
"! 	c #F5F5F5",
"~ 	c #F4F4F4",
"{ 	c #F2F2F2",
"] 	c #F8F8F8",
"^ 	c #979797",
"/ 	c #4D4D4D",
"( 	c #161616",
"_ 	c #222222",
": 	c #797979",
"< 	c #F7F7F7",
"[ 	c #CBCBCB",
"} 	c #757575",
"| 	c #474747",
"1 	c #535353",
"2 	c #5C5C5C",
"3 	c #3D3D3D",
"4 	c #5A5A5A",
"5 	c #9B9B9B",
"6 	c #FDFDFD",
"7 	c #DBDBDB",
"8 	c #878787",
"9 	c #404040",
"0 	c #383838",
"a 	c #7A7A7A",
"b 	c #B9B9B9",
"c 	c #E8E8E8",
"d 	c #EBEBEB",
"e 	c #A8A8A8",
"f 	c #0D0D0D",
"g 	c #EAEAEA",
"h 	c #F1F1F1",
"i 	c #D9D9D9",
"j 	c #888888",
"k 	c #515151",
"l 	c #2A2A2A",
"m 	c #A6A6A6",
"n 	c #EDEDED",
"o 	c #626262",
"p 	c #2E2E2E",
"q 	c #6C6C6C",
"r 	c #ADADAD",
"s 	c #999999",
"t 	c #5F5F5F",
"u 	c #656565",
"v 	c #C8C8C8",
"w 	c #F9F9F9",
"x 	c #FCFCFC",
"y 	c #E0E0E0",
"z 	c #D0D0D0",
"A 	c #B8B8B8",
"B 	c #969696",
"C 	c #696969",
"D 	c #353535",
"E 	c #1C1C1C",
"F 	c #4B4B4B",
"G 	c #737373",
"H 	c #929292",
"I 	c #E3E3E3",
"J 	c #8D8D8D",
"K 	c #E2E2E2",
"L 	c #EFEFEF",
"M 	c #9A9A9A",
"N 	c #7F7F7F",
"O 	c #4F4F4F",
"P 	c #6A6A6A",
"Q 	c #9E9E9E",
"R 	c #AEAEAE",
"S 	c #BCBCBC",
"T 	c #DFDFDF",
"U 	c #B2B2B2",
"V 	c #777777",
"W 	c #CFCFCF",
"X 	c #C0C0C0",
"Y 	c #989898",
"Z 	c #666666",
"` 	c #3B3B3B",
" .	c #727272",
"..	c #ECECEC",
"+.	c #454545",
"@.	c #262626",
"#.	c #A3A3A3",
"$.	c #BEBEBE",
"%.	c #E9E9E9",
"&.	c #D3D3D3",
"*.	c #6E6E6E",
"=.	c #B0B0B0",
"-.	c #D8D8D8",
";.	c #CECECE",
">.	c #787878",
",.	c #959595",
"'.	c #DADADA",
").	c #D1D1D1",
"!.	c #686868",
"~.	c #848484",
"{.	c #CACACA",
"].	c #E5E5E5",
"^.	c #7D7D7D",
"/.	c #C6C6C6",
"(.	c #585858",
"_.	c #323232",
":.	c #717171",
"<.	c #BBBBBB",
"[.	c #5D5D5D",
"}.	c #7E7E7E",
"|.	c #494949",
"1.	c #8F8F8F",
"2.	c #B6B6B6",
"3.	c #A2A2A2",
"4.	c #939393",
"5.	c #8B8B8B",
"6.	c #949494",
"7.	c #707070",
"8.	c #FAFAFA",
"9.	c #7C7C7C",
"0.	c #8A8A8A",
"a.	c #919191",
"                                                                                                                                ",
"                                                                                                                                ",
"                                                                                                                                ",
"                                                                                                                                ",
"                                                                                                                                ",
"                                                                                                                                ",
"                                                                                                                                ",
"                                                                                                                                ",
"                                                                                                                                ",
"                                                                                                                                ",
"                                                                                                                                ",
"                                                                                                                                ",
"                                                                                                                                ",
"                                                                                                                                ",
"                                                                                                                                ",
"                                                                                                                                ",
"                                                                                                                                ",
"                                                                                                                                ",
"                                                                                                                                ",
"                                                                                                                                ",
"                                                                                                                                ",
"                                                                                                                                ",
"                                                                                                                                ",
"                                                                                                                                ",
"                                                                                                                                ",
"                                                                                                                                ",
"                                                                                                                                ",
"                                                . + @ # $ % &                                     * = - ; > , ' ) ! *           ",
"                      * ~ { ] .               ] = ^ / ( _ : ,                                 . < [ } / | 1 2 3 4 5 @ 6         ",
"                    7 8 9 0 | a b c 6     . d e | ( f | e g 6                         6 h i b j k l f f f f f f ( 0 m n         ",
"                < > o ( ( ( ( ( ( p q 5 r s t ( f f u v w               x ! d y z A B C D ( f f E _ E ( _ F G H r v I <         ",
"              x ' a ( ( f f f f f f f f f f f f f ( J K         x L = b M N C O p ( f f ( D P Q - = [ R S T L ] .               ",
"              ~ U 0 ( ( ( ( ( ( ( f f f f f f f f f V W L y X Y Z p f f f f ( _ ` k  .$ [ ..*                                   ",
"              I J ( ( ( ( ( ( ( ( f f f f f f f f f ( +.F @.f f f f f _ k N #.$.' %.] .                                         ",
"              &.*.( ( ( ( ( ( ( ( f f f f f f f f f f f f f f ( 9 : =.-.& < * .                                                 ",
"              ;.o ( ( ( ( ( ( ( ( f f f f f f f f ( 0 4 >.,.b '.{ 6                                                             ",
"              ).!.( ( ( ( ( ( ( ( f f f f f f f f ~.{.].h *                                                                     ",
"              '.^.( ( ( ( ( ( ( ( f f f f f f f F /..                                                                           ",
"              %.M ( ( ( ( ( ( ( ( f f f f f f f (.v 6                                                                           ",
"              ~ =._.( ( ( ( ( ( ( f f f f f f f E :.<.) ! x                                                                     ",
"              w - [.( ( ( ( ( ( ( f f f f f f ( f f f ( }.'.                                                                    ",
"              . '.N ( ( ( ( ( ( ( f f f |.1.2.# 3.4.5.6.- {                                                                     ",
"                L m @.( ( ( ( ( ( f f 7.;.8.. . 6 6 6 6 .                                                                       ",
"                . = 9.E ( ( ( ( ( p 0.'.x                                                                                       ",
"                  * ' }._ ( ( E 2 U d 6                                                                                         ",
"                    . ..$.a.0.U ].x                                                                                             ",
"                                                                                                                                ",
"                                                                                                                                ",
"                                                                                                                                ",
"                                                                                                                                ",
"                                                                                                                                ",
"                                                                                                                                ",
"                                                                                                                                ",
"                                                                                                                                ",
"                                                                                                                                ",
"                                                                                                                                ",
"                                                                                                                                ",
"                                                                                                                                ",
"                                                                                                                                ",
"                                                                                                                                ",
"                                                                                                                                ",
"                                                                                                                                ",
"                                                                                                                                ",
"                                                                                                                                ",
"                                                                                                                                ",
"                                                                                                                                ",
"                                                                                                                                ",
"                                                                                                                                ",
"                                                                                                                                ",
"                                                                                                                                "};
